<?xml version="1.0" standalone="no"?>
<!DOCTYPE svg PUBLIC "-//W3C//DTD SVG 20010904//EN"
 "http://www.w3.org/TR/2001/REC-SVG-20010904/DTD/svg10.dtd">
<svg version="1.0" xmlns="http://www.w3.org/2000/svg"
 width="424.000000pt" height="442.000000pt" viewBox="0 0 424.000000 442.000000"
 preserveAspectRatio="xMidYMid meet">

<g transform="translate(0.000000,442.000000) scale(0.100000,-0.100000)"
fill="#000000" stroke="none">
<path d="M2680 4365 c0 -4 98 -186 136 -251 l17 -31 -46 -94 c-69 -142 -194
-447 -584 -1424 -361 -905 -657 -1642 -757 -1884 l-56 -135 58 -54 c93 -88
251 -223 337 -288 132 -101 287 -204 306 -204 9 0 61 30 115 66 701 472 1251
1175 1640 2093 24 57 44 105 44 106 0 1 -154 150 -342 331 -438 423 -526 509
-508 497 16 -11 162 -127 224 -180 22 -18 43 -33 47 -33 4 0 10 17 14 38 26
145 161 287 325 343 52 18 89 23 187 23 121 1 123 1 150 -27 25 -24 28 -35 28
-90 0 -34 -4 -82 -9 -106 l-8 -43 32 18 c109 64 185 238 161 370 -23 125 -75
191 -226 295 -165 112 -305 255 -305 311 0 12 -20 16 -107 21 -117 6 -214 28
-363 84 -107 40 -332 150 -433 212 -66 40 -77 45 -77 36z m733 -506 c12 -7 45
-34 74 -60 46 -44 57 -49 98 -49 28 0 44 -4 40 -10 -10 -16 -123 -90 -137 -90
-7 0 -20 12 -29 28 -8 15 -39 64 -67 110 -52 81 -52 82 -26 82 14 0 35 -5 47
-11z m-243 -1186 c80 -75 218 -203 308 -286 89 -82 162 -155 162 -160 0 -24
-140 -336 -237 -528 -96 -191 -307 -559 -335 -583 -6 -6 -5 0 4 14 102 166
234 428 333 660 62 147 146 376 148 406 2 19 -94 127 -502 567 -83 90 -26 46
119 -90z"/>
<path d="M1935 4125 c-124 -58 -285 -55 -436 9 -13 6 -36 -34 -119 -196 -152
-301 -191 -363 -234 -374 -18 -4 -71 25 -223 120 -277 174 -313 180 -410 65
-27 -31 -151 -172 -277 -313 l-229 -258 38 -145 c184 -721 499 -1413 883
-1941 l46 -62 259 2 259 3 13 33 14 32 -288 0 c-229 0 -291 3 -300 13 -6 8 -8
17 -4 20 3 4 142 7 309 7 279 0 302 1 307 17 2 10 8 26 12 36 7 16 -13 17
-327 17 -329 0 -358 3 -358 32 0 4 159 8 354 8 l354 0 15 38 15 37 -386 5
c-358 5 -387 6 -390 22 -3 17 21 18 396 18 l400 0 11 31 c6 18 11 34 11 35 0
2 -191 4 -425 4 -414 0 -425 0 -435 20 -11 20 -8 20 435 20 l446 0 15 35 c7
19 14 37 14 40 0 2 -212 6 -472 7 -366 2 -472 6 -476 16 -3 9 97 12 476 12
515 0 494 -2 507 52 l7 28 -508 2 c-475 3 -509 4 -512 21 -3 16 27 17 518 17
l521 0 14 32 c7 18 11 36 9 40 -3 5 -248 8 -545 8 -472 0 -539 2 -539 15 0 13
68 15 554 15 l554 0 11 31 c6 18 11 34 11 35 0 2 -255 5 -567 6 -560 3 -568 3
-568 23 0 20 8 20 581 23 543 2 582 3 587 20 2 9 8 25 12 35 7 16 -25 17 -595
17 -567 0 -601 1 -598 18 3 16 41 17 611 20 l608 2 9 26 c6 14 10 29 10 35 0
5 -247 10 -617 11 -579 3 -618 4 -621 20 -3 17 32 18 628 18 l631 0 15 35 c7
19 14 37 14 40 0 3 -286 5 -636 5 -600 0 -635 1 -632 18 3 16 43 17 646 20
l643 2 9 26 c6 14 10 30 10 35 0 5 -252 9 -646 9 -609 0 -645 1 -642 18 3 16
43 17 655 20 l653 2 15 30 c8 16 15 34 15 40 0 7 -203 10 -651 10 -516 0 -650
3 -647 13 4 9 147 13 660 15 l656 2 11 32 c6 17 11 35 11 39 0 5 -291 9 -646
9 -512 0 -645 3 -642 13 4 9 146 13 656 15 l652 2 15 36 c8 20 15 38 15 40 0
2 -286 4 -635 4 -349 0 -635 4 -635 8 0 31 26 32 655 32 l632 0 11 25 c7 14
12 30 12 35 0 6 -230 10 -610 10 -335 0 -610 4 -610 8 0 31 27 32 633 32 l608
0 15 35 c7 19 14 37 14 40 0 3 -259 5 -575 5 -331 0 -575 4 -575 9 0 5 7 12
16 15 9 3 271 6 583 6 l568 0 11 25 c27 58 58 55 -515 55 -526 1 -528 1 -504
20 22 19 41 20 540 20 l517 0 12 33 c7 18 12 36 12 40 0 4 -206 7 -457 7 -405
1 -456 2 -439 15 17 13 89 15 468 15 l448 0 10 26 c22 56 40 54 -352 56 -355
3 -362 3 -324 21 34 15 76 17 376 17 l337 0 11 25 c7 14 12 30 12 35 0 6 -102
11 -247 12 -242 3 -247 3 -216 21 28 15 62 17 258 17 l226 0 14 33 13 32 -116
3 c-64 1 -120 6 -125 11 -17 17 86 41 175 41 l89 0 15 36 15 36 -83 87 c-46
47 -165 170 -264 274 -99 103 -182 187 -185 186 -2 0 -26 -11 -54 -24z"/>
<path d="M1016 978 c4 -7 17 -25 28 -40 l20 -28 188 0 189 0 15 35 c7 19 14
37 14 40 0 3 -104 5 -231 5 -181 0 -229 -3 -223 -12z"/>
<path d="M1127 835 l28 -35 122 0 121 0 11 31 c6 18 11 34 11 35 0 2 -72 4
-160 4 l-161 0 28 -35z"/>
<path d="M1209 742 c21 -39 48 -53 96 -50 42 3 48 6 60 36 l14 32 -90 0 c-83
0 -89 -1 -80 -18z"/>
<path d="M1310 635 c0 -8 5 -15 10 -15 6 0 10 7 10 15 0 8 -4 15 -10 15 -5 0
-10 -7 -10 -15z"/>
</g>
</svg>
