
<svg version="1.1" id="logo" xmlns="http://www.w3.org/2000/svg" xmlns:xlink="http://www.w3.org/1999/xlink" x="0px" y="0px"
	 width="157px" height="161px" viewBox="0 0 157 161" style="enable-background:new 0 0 157 161;" xml:space="preserve" >




<defs>

<style type="text/css">

<![CDATA[
	.st0{fill-rule:evenodd;clip-rule:evenodd;}
	.st1{fill-rule:evenodd;clip-rule:evenodd;fill:#FFFFFF;}
	.st2{fill-rule:evenodd;clip-rule:evenodd;fill:#4D4D4D;stroke:#000000;stroke-width:2;stroke-miterlimit:10;}
]]>

#logo{
	cursor: pointer;
}

#logo:hover .st2{

fill: #000;
stroke: red;
transition: .8s;

}

#logo.clickit .st2{
	fill: yellow;
	stroke: black;
}

.st2{
	stroke-dasharray: 2000;
	stroke-dashoffset:0;
	-webkit-animation: dash 2s linear forwards;
	animation: dash 10s linear forwards;

}

@-webkit-keyframes dash{
	from{
		stroke-dashoffset: 2000;
	}
	to{
		stroke-dashoffset: 0;
	}
}
</style>

<script type="text/javascript">

	var clicker= document.querySelector("#logo");
	clicker.addEventListener('click',function(){
		this.classList.toggle('clickit');
	});

</script>

</defs>

<path class="st1" d="M5.868,182.436c0-44.754,0-89.504,0-134.256c0.203,0.545,0.436,1.081,0.604,1.636
	c2.312,7.643,4.346,15.382,6.974,22.915c6.053,17.343,14.338,33.571,25.146,48.475c0.836,1.152,1.675,1.697,3.175,1.66
	c4.624-0.117,9.254-0.043,13.88-0.043c2.676,0,2.758-0.072,3.231-2.943c-0.611,0-1.199,0-1.788,0
	c-5.661-0.002-11.324,0.008-16.985-0.016c-0.611,0-1.222-0.186-1.833-0.287c0.017-0.197,0.033-0.391,0.049-0.588
	c0.568-0.029,1.137-0.082,1.706-0.082c5.716-0.006,11.432-0.002,17.148-0.006c2.733,0,2.733,0,3.305-2.943c-0.617,0-1.2,0-1.784,0
	c-6.805,0-13.61,0.014-20.415-0.023c-0.65-0.002-1.299-0.334-1.949-0.516c0.042-0.199,0.084-0.4,0.127-0.6c0.592,0,1.183,0,1.775,0
	c6.914,0,13.828,0,20.741,0c2.557,0,2.785-0.213,3.109-2.941c-0.605,0-1.2,0-1.797,0c-7.948,0-15.896,0.008-23.844-0.016
	c-0.554-0.003-1.106-0.234-1.66-0.359c0.035-0.202,0.069-0.404,0.103-0.605c0.583,0,1.168,0,1.752,0c8.002,0,16.005,0,24.008,0
	c2.459,0,2.582-0.112,2.997-2.885c-0.599,0-1.177,0-1.755,0c-8.928,0-17.857,0.008-26.785-0.021
	c-0.59-0.003-1.181-0.313-1.771-0.483c0.042-0.194,0.083-0.391,0.125-0.585c0.589,0,1.178,0,1.768,0c8.982,0,17.965,0,26.947,0
	c2.508,0,2.696-0.173,3.092-2.94c-0.61,0-1.201,0-1.792,0c-8.056,0-16.114,0-24.17,0c-1.96,0-3.92,0.026-5.879-0.021
	c-0.421-0.01-0.836-0.281-1.254-0.433c0.049-0.176,0.099-0.352,0.148-0.526c0.589,0,1.179,0,1.77,0c9.908,0,19.816,0.001,29.724,0
	c2.411,0,2.684-0.257,3.012-2.939c-0.606,0-1.2,0-1.795,0c-7.131,0-14.263,0-21.395,0c-3.702,0-7.404,0.023-11.105-0.027
	c-0.491-0.008-0.976-0.396-1.463-0.607c0.063-0.188,0.125-0.375,0.188-0.563c0.591,0,1.182,0,1.773,0c10.779,0,21.559,0,32.337,0
	c2.588,0,2.62-0.027,3.152-2.94c-0.607,0-1.184,0-1.761,0c-11.323,0-22.647,0-33.97,0c-0.599,0-1.206,0.045-1.792-0.045
	c-0.249-0.04-0.452-0.376-0.675-0.577c0.052-0.12,0.104-0.239,0.155-0.356c0.642,0,1.283,0,1.925,0c11.487,0,22.974,0,34.46-0.001
	c2.632,0,2.767-0.121,3.205-2.939c-0.662,0-1.31,0-1.957,0c-12.031-0.001-24.063,0-36.093-0.001c-0.436,0-0.891,0.07-1.3-0.034
	c-0.283-0.072-0.505-0.388-0.754-0.594c0.243-0.152,0.469-0.388,0.729-0.435c0.423-0.074,0.868-0.026,1.303-0.026
	c12.14,0,24.28,0,36.42,0c2.693,0,2.693,0,3.296-2.886c-0.612,0-1.208,0-1.802,0c-12.739,0-25.478,0.001-38.217,0
	c-0.49,0-0.995,0.058-1.463-0.044c-0.237-0.052-0.41-0.401-0.911-0.935c1.056,0,1.645,0,2.233,0c12.794,0,25.587,0,38.38,0
	c2.691,0,2.691,0,3.344-3.022c-14.52,0-28.989,0-43.458,0c-0.035-0.239-0.07-0.477-0.105-0.716c0.607-0.114,1.213-0.328,1.82-0.328
	c13.393-0.02,26.785-0.015,40.176-0.016c2.599,0,2.665-0.06,3.091-2.943c-3.002,0-5.982,0-8.962,0c-2.994,0-5.989,0-8.983,0
	c-2.94,0-5.879,0-8.82,0c-2.994,0-5.988,0.009-8.982-0.002c-2.896-0.011-5.792-0.042-8.687-0.064
	c-0.004-0.239-0.007-0.478-0.012-0.717c0.646-0.064,1.29-0.184,1.935-0.184c13.665-0.011,27.329-0.008,40.994-0.009
	c2.508,0,2.723-0.197,3.063-3.006c-15.057,0-30.089,0-45.121,0c-0.035-0.221-0.07-0.443-0.105-0.663
	c0.599-0.139,1.197-0.397,1.796-0.398c13.991-0.022,27.982-0.018,41.974-0.018c2.548,0,2.593-0.04,3.144-2.957
	c-15.174,0-30.314,0-45.454,0c-0.033-0.208-0.066-0.415-0.099-0.622c0.565-0.114,1.13-0.325,1.696-0.326
	c13.828-0.019,27.655-0.015,41.483-0.015c0.977,0,1.955,0,3.008,0c0.36-0.935,0.703-1.824,1.134-2.941c-15.307,0-30.344,0-45.382,0
	c-0.031-0.19-0.063-0.379-0.094-0.568c0.625-0.137,1.251-0.391,1.876-0.393c13.937-0.022,27.873-0.018,41.81-0.018
	c2.549,0,2.732-0.17,3.112-2.966c-14.755,0-29.498,0-44.241,0c-0.035-0.171-0.07-0.34-0.105-0.511
	c0.623-0.147,1.246-0.423,1.869-0.424c13.609-0.024,27.22-0.019,40.83-0.019c2.696,0,2.707-0.011,3.239-2.995
	c-14.237,0-28.446,0-42.654,0c-0.032-0.199-0.064-0.397-0.095-0.596c0.756-0.164,1.512-0.468,2.268-0.469
	c13.011-0.03,26.022-0.021,39.033-0.022c2.417,0,2.785-0.353,2.961-3.008c-13.316,0-26.621,0-39.926,0
	c-0.021-0.181-0.041-0.361-0.062-0.541c0.732-0.124,1.464-0.353,2.197-0.355c12.086-0.022,24.171-0.015,36.257-0.016
	c2.624,0,2.624,0,3.207-2.971c-12.168,0-24.289,0-36.41,0c-0.027-0.206-0.053-0.411-0.079-0.617
	c0.779-0.166,1.556-0.474,2.336-0.476c10.942-0.032,21.885-0.022,32.827-0.022c2.306,0,2.657-0.346,2.85-2.953
	c-10.466,0-20.921,0-31.375,0c-0.021-0.159-0.041-0.318-0.06-0.477c0.798-0.145,1.596-0.414,2.395-0.417
	c9.146-0.03,18.291-0.019,27.437-0.02c2.659,0,2.801-0.124,3.243-3.014c-8.332,0-16.638,0-24.942,0
	c-0.017-0.155-0.032-0.309-0.048-0.464c0.981-0.184,1.962-0.52,2.944-0.526c6.805-0.046,13.61-0.024,20.415-0.025
	c2.688,0,2.728-0.034,3.294-2.988c-5.626,0-11.221,0-16.813,0c-0.017-0.149-0.034-0.298-0.052-0.447
	c0.872-0.162,1.743-0.452,2.617-0.462c4.191-0.049,8.384-0.022,12.575-0.022c2.638,0,2.71-0.063,3.278-2.981
	c-2.752,0-5.478,0-8.686,0c0.685-0.343,0.907-0.54,1.146-0.561c2.361-0.215,4.723-0.521,7.086-0.545
	c1.2-0.012,1.437-0.679,1.777-1.487c0.343-0.818,0.615-1.475-0.231-2.305c-2.486-2.435-4.845-5.001-7.261-7.508
	c-3.54-3.672-7.086-7.338-10.649-11.026c-5.887,3.439-11.819,2.993-17.918,0.434c-1.594,3.181-3.057,6.271-4.673,9.279
	c-1.746,3.249-3.516,6.498-5.512,9.595c-1.125,1.746-2.024,1.719-3.698,0.667c-3.683-2.315-7.35-4.657-11.067-6.915
	c-1.007-0.611-2.142-1.062-3.273-1.404c-1.948-0.589-3.577-0.081-4.95,1.53c-3.035,3.56-6.138,7.063-9.255,10.551
	c-3.072,3.439-6.195,6.833-9.296,10.246c0-14.046,0-28.092,0-42.138c31.141,0,62.282,0,93.423,0
	c-0.004,0.096-0.007,0.193-0.011,0.291c0.203,0.492,0.365,1.006,0.617,1.471c1.477,2.724,2.998,5.424,4.438,8.167
	c0.231,0.441,0.33,1.147,0.144,1.581c-2.563,5.933-5.354,11.774-7.771,17.766C82.7,68.733,68.782,103.493,54.798,138.225
	c-0.402,0.998-0.222,1.549,0.492,2.246c6.956,6.789,14.537,12.783,22.674,18.092c0.938,0.611,1.529,0.328,2.316-0.178
	c8.312-5.354,15.987-11.502,23.007-18.457c17.201-17.039,29.485-37.267,38.486-59.612c0.327-0.812,0.316-1.349-0.359-1.995
	c-7.473-7.146-14.924-14.313-22.358-21.497c-1.55-1.498-3.006-3.092-4.506-4.642c0.021-0.022,0.04-0.045,0.062-0.068
	c2.372,1.952,4.745,3.903,7.23,5.948c0.394-1.344,0.648-2.503,1.066-3.602c2.763-7.283,10.231-11.594,18.933-10.966
	c3.892,0.281,4.706,1.159,4.521,5.057c-0.053,1.079-0.323,2.146-0.493,3.218c-0.061,0.379-0.117,0.759-0.216,1.399
	c0.791-0.519,1.348-0.85,1.867-1.231c2.845-2.091,4.413-5.008,5.342-8.332c0,43.771,0,87.544,0,131.316
	c-6.469,0-12.94,0.09-19.405-0.039c-3.221-0.066-5.229,1.393-6.566,4.125c-0.821,1.68-0.37,2.414,1.542,2.443
	c1.42,0.018,2.839,0.002,4.259,0.002c0.032,0.225,0.063,0.447,0.096,0.668c-0.759,0.201-1.521,0.58-2.275,0.568
	c-2.76-0.031-4.972,1.08-7.104,2.996c2.985,0,5.747,0.164,8.48-0.055c1.819-0.15,3.074-1.516,3.994-3.074
	c1.362-2.311,0.818-3.275-1.879-3.33c-1.188-0.025-2.376-0.004-3.564-0.004c-0.028-0.201-0.057-0.404-0.085-0.605
	c0.729-0.236,1.444-0.625,2.185-0.676c2.389-0.164,4.912,0.398,6.869-1.74c0.092,0.117,0.184,0.234,0.275,0.354
	c-1.601,2.998-3.2,6-4.908,9.199c3.78,0,7.202,0,10.626,0c2.215,0,2.66-0.385,3.15-2.908c-2.815,0-5.593,0-8.369,0
	c-0.036-0.137-0.072-0.275-0.108-0.414c1.831-0.861,3.659-1.723,5.49-2.584c-0.067-0.223-0.134-0.445-0.201-0.67
	c-1.022,0-2.046,0-3.067,0c-0.043-0.229-0.085-0.457-0.127-0.686c0.654-0.191,1.321-0.582,1.962-0.543
	c3.269,0.199,6.273-0.332,8.732-2.703c0,11.107,0,22.213,0,33.32c-48.998,0-97.996,0-146.994,0c0-7.949,0-15.896,0-23.846
	c1.088,0.414,2.157,1.105,3.271,1.188c2.434,0.18,4.899,0.182,7.334,0.014c3.945-0.271,6.982-2.01,8.87-5.688
	c1.783-3.479,3.822-6.822,5.727-10.238c0.357-0.641,0.614-1.336,1.006-2.207c-1.17,0-2.091,0.086-2.989-0.018
	c-1.64-0.191-2.585,0.492-3.34,1.943c-1.428,2.742-3.022,5.402-4.587,8.07c-2.002,3.414-3.117,3.902-7.086,3.355
	c-1.32-0.184-1.537-0.869-1.008-1.926c0.461-0.922,1.015-1.793,1.517-2.695c1.573-2.826,3.141-5.654,4.85-8.73
	c-0.893,0-1.428,0.057-1.948-0.01c-2.337-0.295-3.758,0.611-4.868,2.785C10.549,174.617,8.136,178.486,5.868,182.436z
	 M120.3,189.906c-0.419-0.041-0.836-0.119-1.255-0.119c-23.079-0.006-46.16,0-69.241-0.023c-1.235,0-2.023,0.42-2.628,1.504
	c-2.782,4.982-5.621,9.936-8.422,14.908c-0.276,0.49-0.437,1.043-0.734,1.771c6.813,0,13.341,0.004,19.869-0.014
	c0.351-0.004,0.865-0.123,1.021-0.365c0.83-1.299,1.569-2.658,2.517-4.303c-5.361,0-10.278,0-15.438,0
	c0.687-1.061,0.626-2.332,2.215-2.252c3.247,0.16,5.282-2.283,7.907-3.467c-0.048-0.164-0.095-0.33-0.143-0.494
	c-2.074,0-4.149,0-6.235,0c0.198-2,1.198-2.518,2.983-2.512c18.889,0.055,37.778-0.088,56.665,0.121
	C113.929,194.713,116.869,192.049,120.3,189.906z M53.515,185.598c3.983,0.73,5.267,0.197,7.078-2.971
	c1.912-3.346,3.786-6.713,5.61-10.107c1.581-2.943,0.505-4.689-2.874-4.721c-3.37-0.033-6.741,0.016-10.11-0.02
	c-1.511-0.016-2.559,0.561-3.312,1.9c-2.629,4.689-5.325,9.342-7.974,14.02c-0.313,0.551-0.501,1.174-0.754,1.779
	c3.924,1.008,4.641,0.736,6.604-2.605c1.706-2.9,3.328-5.848,5.051-8.74c0.335-0.561,0.936-1.301,1.467-1.346
	c1.903-0.162,3.829-0.063,6.213-0.063C58.065,177.227,55.821,181.355,53.515,185.598z M100.562,181.18
	c-3.837,0-7.205,0.021-10.573-0.008c-1.661-0.014-1.983-0.521-1.181-1.99c0.883-1.619,1.906-3.158,2.857-4.74
	c0.779-1.295,1.946-1.822,3.418-1.811c1.848,0.018,3.696,0.053,5.542,0.008c3.787-0.098,6.201-2.879,9.563-4.623
	c-0.603-0.184-0.744-0.264-0.888-0.266c-5.001-0.006-10.004-0.068-15.003,0.02c-2.579,0.047-4.851,1.168-6.253,3.32
	c-2.131,3.266-3.994,6.705-5.933,10.096c-0.287,0.502-0.406,1.121-0.51,1.703c-0.259,1.455,0.32,2.445,1.775,2.813
	c0.681,0.17,1.391,0.303,2.087,0.309c3.697,0.031,7.396,0.035,11.092-0.006c0.487-0.004,1.183-0.172,1.421-0.516
	C98.856,184.219,99.586,182.842,100.562,181.18z M71.077,207.918c0.646,0.121,0.961,0.232,1.274,0.236
	c2.718,0.014,5.435,0.037,8.151-0.02c0.496-0.008,1.25-0.236,1.431-0.592c0.752-1.48,1.934-1.332,3.283-1.086
	c-0.072,0.514-0.143,1.012-0.245,1.736c1.02-0.127,1.966-0.518,2.709-0.279c1.436,0.463,2.157-0.109,2.77-1.232
	c0.469-0.859,0.953-1.709,1.446-2.555c0.856-1.465,1.118-1.551,2.897-0.914c-0.83,1.502-1.654,2.994-2.501,4.525
	c1.453,0.658,2.323,0.238,2.935-0.996c0.459-0.922,1.041-1.787,1.479-2.719c0.622-1.324,1.57-1.559,2.95-1.039
	c-0.855,1.629-1.675,3.189-2.512,4.787c1.437,0.604,2.284,0.205,2.857-1.086c0.461-1.041,1.066-2.018,1.605-3.021
	c1.324-2.473,0.976-3.086-1.768-3.1c-1.959-0.01-3.922,0.064-5.878-0.023c-1.573-0.07-3.056-0.129-3.582,1.719
	c-0.461-0.578-0.719-1.232-1.169-1.418c-2.609-1.082-5.943,0.141-7.356,2.6c-0.38,0.658-0.731,1.334-1.146,1.973
	c-0.193,0.299-0.493,0.738-0.759,0.748c-1.69,0.07-3.387,0.035-5.08,0.035c-0.002-0.09-0.003-0.178-0.006-0.268
	c1.129-0.604,2.258-1.205,3.738-1.994c-1.067-0.256-1.664-0.396-2.261-0.541c-0.011-0.188-0.021-0.377-0.03-0.564
	c2.32-0.299,5.022,0.51,6.882-2.248c-2.582,0-4.892-0.033-7.196,0.035c-0.403,0.014-0.952,0.373-1.167,0.73
	C73.575,203.441,72.4,205.578,71.077,207.918z M111.33,185.553c2.598,0.598,2.75,0.518,4.126-1.48
	c0.245-0.355,0.713-0.73,1.11-0.773c1.05-0.109,2.118-0.037,3.344-0.037c-0.379,0.938-0.656,1.623-0.941,2.326
	c3.18,0.48,4.145-0.184,4.885-3.238c0.094-0.389,0.355-0.744,0.578-1.09c0.706-1.084,1.561-2.09,2.12-3.244
	c1.061-2.184,0.386-3.232-2.092-3.346c-1.792-0.08-3.594,0.047-5.385-0.045c-1.263-0.064-2.024,0.43-2.61,1.51
	c-1.454,2.674-2.981,5.305-4.466,7.965C111.744,184.553,111.56,185.051,111.33,185.553z M68.676,185.572
	c0.059,0.158,0.119,0.318,0.178,0.479c1.067-0.279,2.618-0.217,3.112-0.908c1.696-2.365,3.133-4.941,4.445-7.551
	c0.732-1.455,0.155-2.379-1.455-2.48c-2.045-0.129-4.14-0.152-6.151,0.164c-1.061,0.17-2.316,0.939-2.92,1.822
	c-1.741,2.545-3.203,5.287-4.749,7.967c-0.135,0.23-0.073,0.578-0.16,1.447c1.425-0.576,2.818-0.723,3.492-1.498
	c1.465-1.686,2.813-2.242,5.03-1.334C69.224,184.309,68.95,184.941,68.676,185.572z M104.849,185.803
	c0.001,0.039,0.002,0.08,0.004,0.123c1.138-0.07,2.338,0.066,3.396-0.262c1.085-0.332,2.345-0.887,2.974-1.748
	c1.432-1.963,2.603-4.131,3.724-6.295c0.728-1.402,0.164-2.473-1.367-2.553c-2.105-0.111-4.24-0.066-6.332,0.172
	c-0.882,0.102-1.987,0.666-2.474,1.373c-1.528,2.23-2.897,4.586-4.153,6.982c-0.581,1.109-0.063,2.063,1.3,2.188
	C102.888,185.875,103.871,185.803,104.849,185.803z M23.975,185.576c2.305,0.469,3.672-0.176,4.485-2.107
	c0.503-1.193,1.243-2.289,1.896-3.418c1.511-2.611,1.958-2.791,5.4-2.098c-1.347,2.555-2.664,5.053-4.123,7.818
	c1.529-0.182,2.894,0.621,3.735-0.832c1.386-2.398,2.768-4.805,4.052-7.256c0.909-1.738,0.294-2.748-1.641-2.801
	c-2.175-0.059-4.354-0.057-6.527,0.018c-0.529,0.02-1.29,0.277-1.528,0.676C27.783,178.824,25.938,182.131,23.975,185.576z
	 M71.254,199.168c-1.691,3.111-3.271,6.014-4.895,8.996c4.236,0.162,3.497,0.389,5.255-2.717c0.936-1.652,1.895-3.293,2.789-4.969
	c0.493-0.922,1.101-1.256,2.211-1.197c2.703,0.137,4.386-1.777,6.252-3.383c-2.773-0.229-5.479-0.232-8.184-0.223
	c-0.433,0-0.864,0.082-1.298,0.098c-2.633,0.1-4.584,1.521-6.824,3.395C68.34,199.168,69.672,199.168,71.254,199.168z
	 M40.984,124.025c0.976,2.334,2.526,3.141,4.916,2.93c2.638-0.23,5.311-0.053,7.97-0.053c2.771,0,2.771,0,3.408-2.877
	C51.868,124.025,46.469,124.025,40.984,124.025z M44.842,175.188c-0.117-0.188-0.234-0.377-0.352-0.566
	c-1.084,0.361-2.681,0.395-3.166,1.145c-2.017,3.121-3.698,6.457-5.521,9.744c2.533,0.787,2.936,0.633,4.094-1.424
	c0.85-1.51,1.71-3.016,2.553-4.531C43.257,178.104,44.046,176.645,44.842,175.188z M44.039,127.939
	c1.12,2.012,2.39,3.227,4.72,2.865c1.271-0.199,2.599-0.037,3.9-0.037c2.333,0,2.673-0.33,2.926-2.828
	C51.803,127.939,48.02,127.939,44.039,127.939z M47.59,131.844c0.807,2.244,2.261,3.172,4.745,2.883
	c1.694-0.201,1.223-1.846,1.917-2.883C51.906,131.844,49.75,131.844,47.59,131.844z M60.025,202.41c1.805,0,3.414,0.055,5.015-0.043
	c0.368-0.021,0.985-0.572,0.983-0.875c-0.002-0.361-0.527-1.014-0.858-1.033c-1.647-0.109-3.306-0.051-5.047-0.051
	C60.086,201.107,60.062,201.631,60.025,202.41z"/>
<path class="st2" d="M152.862,43.606c-0.929,3.323-2.497,6.24-5.342,8.332c-0.52,0.381-1.076,0.712-1.867,1.231
	c0.099-0.64,0.155-1.02,0.216-1.399c0.17-1.072,0.44-2.139,0.493-3.218c0.186-3.897-0.629-4.775-4.521-5.057
	c-8.701-0.628-16.17,3.683-18.933,10.966c-0.418,1.099-0.673,2.258-1.066,3.602c-2.485-2.045-4.858-3.996-7.23-5.948
	c-0.021,0.022-0.041,0.045-0.062,0.068c1.5,1.55,2.956,3.144,4.506,4.642c7.435,7.185,14.886,14.352,22.358,21.497
	c0.676,0.646,0.687,1.184,0.359,1.995c-9.001,22.345-21.285,42.573-38.486,59.612c-7.02,6.955-14.695,13.104-23.007,18.457
	c-0.787,0.506-1.378,0.789-2.316,0.178c-8.138-5.309-15.719-11.303-22.674-18.092c-0.714-0.697-0.894-1.248-0.492-2.246
	C68.782,103.493,82.7,68.733,96.707,34.009c2.418-5.991,5.208-11.833,7.771-17.766c0.187-0.434,0.088-1.14-0.144-1.581
	c-1.439-2.743-2.961-5.443-4.438-8.167c-0.252-0.465-0.414-0.979-0.617-1.471c2.551,1.427,5.069,2.914,7.657,4.269
	c6.648,3.481,13.437,6.648,20.972,7.661c2.003,0.269,4.071,0.042,5.391,0.042c1.419,2.104,2.203,3.927,3.547,5.126
	c3.142,2.807,6.617,5.238,9.829,7.974c1.665,1.419,3.196,3.054,4.521,4.795c0.816,1.073,1.127,2.53,1.665,3.815
	C152.862,40.339,152.862,41.973,152.862,43.606z M117.901,111.375c0.059,0.029,0.117,0.059,0.176,0.088
	c0.106-0.111,0.238-0.207,0.313-0.335c5.541-9.546,10.385-19.434,14.513-29.672c0.364-0.903,0.015-1.378-0.586-1.934
	c-3.711-3.43-7.399-6.885-11.099-10.328c-2.775-2.584-5.555-5.164-8.332-7.746c0.08,0.453,0.314,0.746,0.568,1.021
	c5.386,5.825,10.748,11.672,16.189,17.444c0.84,0.892,0.965,1.609,0.597,2.713c-3.148,9.444-7.015,18.58-11.677,27.377
	C118.326,110.453,118.122,110.917,117.901,111.375z M132.289,27.795c0.017-0.139,0.034-0.277,0.052-0.416
	c-2.609,0.469-3.988-1.134-5.411-2.762c-0.945-1.082-2.179-1.703-3.896-1.485c1.647,2.62,3.215,5.112,4.836,7.692
	C129.471,29.728,130.88,28.762,132.289,27.795z"/>
<path class="st2" d="M5.868,46.873c3.101-3.414,6.224-6.807,9.296-10.246c3.117-3.489,6.22-6.992,9.255-10.551
	c1.373-1.611,3.002-2.119,4.95-1.53c1.131,0.342,2.266,0.793,3.273,1.404c3.718,2.258,7.384,4.6,11.067,6.915
	c1.673,1.053,2.572,1.079,3.698-0.667c1.996-3.097,3.766-6.346,5.512-9.595c1.616-3.008,3.079-6.098,4.673-9.279
	c6.099,2.559,12.031,3.006,17.918-0.434c3.563,3.688,7.109,7.354,10.649,11.026c2.416,2.507,4.774,5.074,7.261,7.508
	c0.847,0.83,0.574,1.487,0.231,2.305c-0.341,0.808-0.577,1.476-1.777,1.487c-2.363,0.024-4.725,0.33-7.086,0.545
	c-0.239,0.021-0.462,0.218-1.146,0.561c3.208,0,5.934,0,8.686,0c-0.568,2.919-0.641,2.981-3.278,2.981
	c-4.191,0-8.384-0.027-12.575,0.022c-0.874,0.01-1.745,0.3-2.617,0.462c0.018,0.149,0.035,0.298,0.052,0.447
	c5.593,0,11.188,0,16.813,0c-0.566,2.955-0.605,2.988-3.294,2.988c-6.805,0.001-13.61-0.021-20.415,0.025
	c-0.982,0.007-1.963,0.342-2.944,0.526c0.016,0.155,0.031,0.309,0.048,0.464c8.305,0,16.61,0,24.942,0
	c-0.442,2.89-0.584,3.014-3.243,3.014c-9.146,0.001-18.291-0.01-27.437,0.02c-0.799,0.002-1.597,0.271-2.395,0.417
	c0.02,0.159,0.04,0.318,0.06,0.477c10.454,0,20.909,0,31.375,0c-0.192,2.607-0.544,2.953-2.85,2.953
	c-10.942,0-21.885-0.01-32.827,0.022c-0.78,0.002-1.557,0.311-2.336,0.476c0.026,0.206,0.052,0.411,0.079,0.617
	c12.121,0,24.242,0,36.41,0c-0.583,2.971-0.583,2.971-3.207,2.971c-12.086,0-24.171-0.006-36.257,0.016
	c-0.732,0.002-1.464,0.231-2.197,0.355c0.021,0.18,0.042,0.36,0.062,0.541c13.305,0,26.609,0,39.926,0
	c-0.176,2.655-0.544,3.008-2.961,3.008c-13.011,0.001-26.022-0.008-39.033,0.022c-0.756,0.001-1.512,0.306-2.268,0.469
	c0.031,0.199,0.063,0.397,0.095,0.596c14.208,0,28.417,0,42.654,0c-0.532,2.984-0.543,2.995-3.239,2.995
	c-13.609,0-27.22-0.006-40.83,0.019c-0.623,0-1.246,0.276-1.869,0.424c0.035,0.171,0.07,0.34,0.105,0.511
	c14.743,0,29.486,0,44.241,0c-0.38,2.796-0.563,2.966-3.112,2.966c-13.938,0-27.874-0.005-41.81,0.018
	c-0.625,0.001-1.251,0.256-1.876,0.393c0.031,0.189,0.063,0.378,0.094,0.568c15.038,0,30.075,0,45.382,0
	c-0.431,1.117-0.773,2.006-1.134,2.941c-1.053,0-2.031,0-3.008,0c-13.828,0-27.655-0.004-41.483,0.015
	c-0.565,0-1.131,0.212-1.696,0.326c0.033,0.207,0.066,0.415,0.099,0.622c15.14,0,30.28,0,45.454,0
	c-0.551,2.917-0.596,2.957-3.144,2.957c-13.991,0-27.983-0.004-41.974,0.018c-0.599,0.001-1.198,0.259-1.796,0.398
	c0.035,0.22,0.07,0.442,0.105,0.663c15.032,0,30.064,0,45.121,0c-0.34,2.809-0.555,3.006-3.063,3.006
	c-13.665,0-27.329-0.002-40.994,0.009c-0.645,0-1.289,0.12-1.935,0.184c0.004,0.239,0.007,0.478,0.012,0.717
	c2.896,0.022,5.792,0.053,8.687,0.064c2.995,0.011,5.989,0.002,8.982,0.002c2.94,0,5.88,0,8.82,0c2.994,0,5.989,0,8.983,0
	c2.979,0,5.96,0,8.962,0c-0.426,2.883-0.492,2.943-3.091,2.943c-13.392,0.001-26.784-0.004-40.176,0.016
	c-0.607,0-1.213,0.214-1.82,0.328c0.035,0.239,0.07,0.477,0.105,0.716c14.469,0,28.939,0,43.458,0
	c-0.652,3.022-0.652,3.022-3.344,3.022c-12.793,0-25.586,0-38.38,0c-0.588,0-1.177,0-2.233,0c0.501,0.533,0.673,0.883,0.911,0.935
	c0.468,0.102,0.973,0.044,1.463,0.044c12.739,0.001,25.478,0,38.217,0c0.594,0,1.189,0,1.802,0
	c-0.603,2.886-0.603,2.886-3.296,2.886c-12.141,0-24.28,0-36.42,0c-0.435,0-0.88-0.048-1.303,0.026
	c-0.26,0.047-0.487,0.283-0.729,0.435c0.249,0.206,0.471,0.522,0.754,0.594c0.409,0.104,0.864,0.034,1.3,0.034
	c12.031,0.001,24.063,0,36.093,0.001c0.647,0,1.295,0,1.957,0c-0.438,2.818-0.573,2.939-3.205,2.939
	c-11.487,0.001-22.973,0.001-34.46,0.001c-0.642,0-1.283,0-1.925,0c-0.051,0.117-0.103,0.236-0.155,0.356
	c0.223,0.201,0.426,0.537,0.675,0.577c0.585,0.091,1.193,0.045,1.792,0.045c11.323,0,22.647,0,33.97,0c0.577,0,1.153,0,1.761,0
	c-0.532,2.913-0.564,2.94-3.152,2.94c-10.778,0-21.558,0-32.337,0c-0.591,0-1.182,0-1.773,0c-0.063,0.188-0.125,0.375-0.188,0.563
	c0.488,0.211,0.973,0.6,1.463,0.607c3.701,0.051,7.403,0.027,11.105,0.027c7.132,0,14.264,0,21.395,0c0.595,0,1.188,0,1.795,0
	c-0.328,2.683-0.601,2.939-3.012,2.939c-9.908,0.001-19.815,0-29.724,0c-0.59,0-1.18,0-1.77,0c-0.049,0.175-0.099,0.351-0.148,0.526
	c0.418,0.151,0.833,0.423,1.254,0.433c1.959,0.048,3.919,0.021,5.879,0.021c8.057,0,16.114,0,24.17,0c0.591,0,1.182,0,1.792,0
	c-0.396,2.768-0.584,2.94-3.092,2.94c-8.982,0-17.965,0-26.947,0c-0.589,0-1.179,0-1.768,0c-0.042,0.194-0.083,0.391-0.125,0.585
	c0.591,0.17,1.181,0.48,1.771,0.483c8.928,0.029,17.857,0.021,26.785,0.021c0.578,0,1.156,0,1.755,0
	c-0.415,2.772-0.538,2.885-2.997,2.885c-8.003,0-16.006,0-24.008,0c-0.584,0-1.168,0-1.752,0c-0.034,0.201-0.068,0.403-0.103,0.605
	c0.553,0.125,1.106,0.356,1.66,0.359c7.948,0.023,15.896,0.016,23.844,0.016c0.597,0,1.191,0,1.797,0
	c-0.324,2.728-0.553,2.941-3.109,2.941c-6.914,0-13.828,0-20.741,0c-0.592,0-1.184,0-1.775,0c-0.042,0.199-0.085,0.4-0.127,0.6
	c0.649,0.182,1.298,0.514,1.949,0.516c6.805,0.037,13.61,0.023,20.415,0.023c0.584,0,1.167,0,1.784,0
	c-0.571,2.943-0.571,2.943-3.305,2.943c-5.716,0.004-11.432,0-17.148,0.006c-0.569,0-1.138,0.053-1.706,0.082
	c-0.016,0.197-0.032,0.391-0.049,0.588c0.612,0.102,1.222,0.287,1.833,0.287c5.662,0.023,11.324,0.014,16.985,0.016
	c0.589,0,1.177,0,1.788,0c-0.474,2.871-0.556,2.943-3.231,2.943c-4.626,0-9.256-0.074-13.88,0.043
	c-1.5,0.037-2.339-0.508-3.175-1.66C27.785,106.301,19.5,90.074,13.446,72.73c-2.628-7.533-4.662-15.272-6.974-22.915
	c-0.168-0.556-0.401-1.091-0.604-1.636C5.868,47.743,5.868,47.308,5.868,46.873z"/>
<path class="st1" d="M152.862,38.707c-0.538-1.285-0.849-2.742-1.665-3.815c-1.325-1.741-2.856-3.376-4.521-4.795
	c-3.212-2.735-6.688-5.167-9.829-7.974c-1.344-1.199-2.128-3.022-3.547-5.126c-1.319,0-3.388,0.228-5.391-0.042
	c-7.535-1.012-14.323-4.18-20.972-7.661c-2.588-1.355-5.106-2.842-7.657-4.269c0.004-0.097,0.007-0.194,0.011-0.291
	c17.857,0,35.715,0,53.571,0C152.862,16.058,152.862,27.382,152.862,38.707z"/>
<path class="st0" d="M5.868,182.436c2.268-3.949,4.681-7.818,6.748-11.871c1.109-2.174,2.531-3.08,4.868-2.785
	c0.52,0.066,1.056,0.01,1.948,0.01c-1.709,3.076-3.277,5.904-4.85,8.73c-0.501,0.902-1.055,1.773-1.517,2.695
	c-0.528,1.057-0.312,1.742,1.008,1.926c3.969,0.547,5.083,0.059,7.086-3.355c1.565-2.668,3.16-5.328,4.587-8.07
	c0.755-1.451,1.7-2.135,3.34-1.943c0.898,0.104,1.819,0.018,2.989,0.018c-0.392,0.871-0.649,1.566-1.006,2.207
	c-1.905,3.416-3.943,6.76-5.727,10.238c-1.888,3.678-4.925,5.416-8.87,5.688c-2.436,0.168-4.901,0.166-7.334-0.014
	c-1.114-0.082-2.183-0.773-3.271-1.188C5.868,183.957,5.868,183.197,5.868,182.436z"/>
<path class="st0" d="M152.862,175.246c-2.459,2.371-5.464,2.902-8.732,2.703c-0.641-0.039-1.308,0.352-1.962,0.543
	c0.042,0.229,0.084,0.457,0.127,0.686c1.021,0,2.045,0,3.067,0c0.067,0.225,0.134,0.447,0.201,0.67
	c-1.831,0.861-3.659,1.723-5.49,2.584c0.036,0.139,0.072,0.277,0.108,0.414c2.776,0,5.554,0,8.369,0
	c-0.49,2.523-0.936,2.908-3.15,2.908c-3.424,0-6.846,0-10.626,0c1.708-3.199,3.308-6.201,4.908-9.199
	c-0.092-0.119-0.184-0.236-0.275-0.354c-1.957,2.139-4.48,1.576-6.869,1.74c-0.74,0.051-1.456,0.439-2.185,0.676
	c0.028,0.201,0.057,0.404,0.085,0.605c1.188,0,2.377-0.021,3.564,0.004c2.697,0.055,3.241,1.02,1.879,3.33
	c-0.92,1.559-2.175,2.924-3.994,3.074c-2.733,0.219-5.495,0.055-8.48,0.055c2.133-1.916,4.345-3.027,7.104-2.996
	c0.755,0.012,1.517-0.367,2.275-0.568c-0.032-0.221-0.063-0.443-0.096-0.668c-1.42,0-2.839,0.016-4.259-0.002
	c-1.912-0.029-2.363-0.764-1.542-2.443c1.338-2.732,3.346-4.191,6.566-4.125c6.465,0.129,12.937,0.039,19.405,0.039
	C152.862,175.031,152.862,175.141,152.862,175.246z"/>
<path class="st0" d="M120.3,189.906c-3.431,2.143-6.371,4.807-10.919,4.756c-18.887-0.209-37.776-0.066-56.665-0.121
	c-1.786-0.006-2.785,0.512-2.983,2.512c2.086,0,4.161,0,6.235,0c0.048,0.164,0.095,0.33,0.143,0.494
	c-2.625,1.184-4.661,3.627-7.907,3.467c-1.589-0.08-1.528,1.191-2.215,2.252c5.16,0,10.077,0,15.438,0
	c-0.947,1.645-1.687,3.004-2.517,4.303c-0.155,0.242-0.67,0.361-1.021,0.365c-6.527,0.018-13.056,0.014-19.869,0.014
	c0.298-0.729,0.458-1.281,0.734-1.771c2.801-4.973,5.64-9.926,8.422-14.908c0.604-1.084,1.393-1.504,2.628-1.504
	c23.081,0.023,46.162,0.018,69.241,0.023C119.464,189.787,119.881,189.865,120.3,189.906z"/>
<path class="st0" d="M53.515,185.598c2.306-4.242,4.55-8.371,6.999-12.873c-2.384,0-4.31-0.1-6.213,0.063
	c-0.531,0.045-1.132,0.785-1.467,1.346c-1.723,2.893-3.345,5.84-5.051,8.74c-1.964,3.342-2.68,3.613-6.604,2.605
	c0.253-0.605,0.442-1.229,0.754-1.779c2.649-4.678,5.345-9.33,7.974-14.02c0.753-1.34,1.8-1.916,3.312-1.9
	c3.37,0.035,6.74-0.014,10.11,0.02c3.379,0.031,4.455,1.777,2.874,4.721c-1.824,3.395-3.698,6.762-5.61,10.107
	C58.782,185.795,57.498,186.328,53.515,185.598z"/>
<path class="st0" d="M100.562,181.18c-0.976,1.662-1.705,3.039-2.585,4.309c-0.238,0.344-0.934,0.512-1.421,0.516
	c-3.696,0.041-7.395,0.037-11.092,0.006c-0.696-0.006-1.406-0.139-2.087-0.309c-1.455-0.367-2.034-1.357-1.775-2.813
	c0.104-0.582,0.223-1.201,0.51-1.703c1.938-3.391,3.802-6.83,5.933-10.096c1.402-2.152,3.674-3.273,6.253-3.32
	c4.999-0.088,10.002-0.025,15.003-0.02c0.144,0.002,0.285,0.082,0.888,0.266c-3.361,1.744-5.775,4.525-9.563,4.623
	c-1.846,0.045-3.694,0.01-5.542-0.008c-1.472-0.012-2.639,0.516-3.418,1.811c-0.951,1.582-1.975,3.121-2.857,4.74
	c-0.803,1.469-0.48,1.977,1.181,1.99C93.356,181.201,96.725,181.18,100.562,181.18z"/>
<path class="st0" d="M71.077,207.918c1.323-2.34,2.498-4.477,3.753-6.57c0.215-0.357,0.764-0.717,1.167-0.73
	c2.305-0.068,4.614-0.035,7.196-0.035c-1.859,2.758-4.562,1.949-6.882,2.248c0.01,0.188,0.02,0.377,0.03,0.564
	c0.597,0.145,1.193,0.285,2.261,0.541c-1.48,0.789-2.609,1.391-3.738,1.994c0.003,0.09,0.004,0.178,0.006,0.268
	c1.693,0,3.39,0.035,5.08-0.035c0.266-0.01,0.565-0.449,0.759-0.748c0.414-0.639,0.766-1.314,1.146-1.973
	c1.413-2.459,4.747-3.682,7.356-2.6c0.45,0.186,0.708,0.84,1.169,1.418c0.526-1.848,2.009-1.789,3.582-1.719
	c1.956,0.088,3.919,0.014,5.878,0.023c2.743,0.014,3.092,0.627,1.768,3.1c-0.539,1.004-1.145,1.98-1.605,3.021
	c-0.573,1.291-1.421,1.689-2.857,1.086c0.837-1.598,1.656-3.158,2.512-4.787c-1.38-0.52-2.328-0.285-2.95,1.039
	c-0.438,0.932-1.02,1.797-1.479,2.719c-0.611,1.234-1.481,1.654-2.935,0.996c0.847-1.531,1.671-3.023,2.501-4.525
	c-1.779-0.637-2.041-0.551-2.897,0.914c-0.493,0.846-0.978,1.695-1.446,2.555c-0.612,1.123-1.334,1.695-2.77,1.232
	c-0.743-0.238-1.689,0.152-2.709,0.279c0.103-0.725,0.173-1.223,0.245-1.736c-1.35-0.246-2.531-0.395-3.283,1.086
	c-0.181,0.355-0.935,0.584-1.431,0.592c-2.717,0.057-5.434,0.033-8.151,0.02C72.038,208.15,71.724,208.039,71.077,207.918z
	 M84.128,204.305c1.248-0.145,2.614,0.613,3.013-1.264C85.812,202.523,84.827,202.633,84.128,204.305z"/>
<path class="st0" d="M111.33,185.553c0.229-0.502,0.414-1,0.669-1.453c1.484-2.66,3.012-5.291,4.466-7.965
	c0.586-1.08,1.348-1.574,2.61-1.51c1.791,0.092,3.593-0.035,5.385,0.045c2.478,0.113,3.152,1.162,2.092,3.346
	c-0.56,1.154-1.414,2.16-2.12,3.244c-0.223,0.346-0.484,0.701-0.578,1.09c-0.74,3.055-1.705,3.719-4.885,3.238
	c0.285-0.703,0.563-1.389,0.941-2.326c-1.226,0-2.294-0.072-3.344,0.037c-0.397,0.043-0.865,0.418-1.11,0.773
	C114.08,186.07,113.928,186.15,111.33,185.553z M122.749,177.963c-3.696-0.33-4.18-0.1-4.612,2.133
	C122.042,180.283,122.277,180.18,122.749,177.963z"/>
<path class="st0" d="M68.676,185.572c0.274-0.631,0.548-1.264,0.822-1.893c-2.218-0.908-3.565-0.352-5.03,1.334
	c-0.674,0.775-2.067,0.922-3.492,1.498c0.087-0.869,0.025-1.217,0.16-1.447c1.546-2.68,3.008-5.422,4.749-7.967
	c0.604-0.883,1.859-1.652,2.92-1.822c2.012-0.316,4.106-0.293,6.151-0.164c1.61,0.102,2.188,1.025,1.455,2.48
	c-1.313,2.609-2.749,5.186-4.445,7.551c-0.494,0.691-2.045,0.629-3.112,0.908C68.795,185.891,68.734,185.73,68.676,185.572z
	 M67.673,180.068c4.061,0.27,4.319,0.16,4.658-1.877C69.806,177.375,68.271,177.963,67.673,180.068z"/>
<path class="st0" d="M104.849,185.803c-0.978,0-1.961,0.072-2.93-0.02c-1.362-0.125-1.881-1.078-1.3-2.188
	c1.256-2.396,2.625-4.752,4.153-6.982c0.486-0.707,1.592-1.271,2.474-1.373c2.092-0.238,4.227-0.283,6.332-0.172
	c1.531,0.08,2.095,1.15,1.367,2.553c-1.121,2.164-2.292,4.332-3.724,6.295c-0.629,0.861-1.889,1.416-2.974,1.748
	c-1.058,0.328-2.258,0.191-3.396,0.262C104.851,185.883,104.85,185.842,104.849,185.803z M104.886,182.299
	c2.721,1.459,4.996-0.006,6.067-4.328C107.312,177.578,106.263,178.314,104.886,182.299z"/>
<path class="st0" d="M23.975,185.576c1.963-3.445,3.808-6.752,5.751-10c0.238-0.398,0.999-0.656,1.528-0.676
	c2.173-0.074,4.352-0.076,6.527-0.018c1.935,0.053,2.549,1.063,1.641,2.801c-1.285,2.451-2.666,4.857-4.052,7.256
	c-0.842,1.453-2.206,0.65-3.735,0.832c1.459-2.766,2.775-5.264,4.123-7.818c-3.442-0.693-3.89-0.514-5.4,2.098
	c-0.653,1.129-1.393,2.225-1.896,3.418C27.647,185.4,26.28,186.045,23.975,185.576z"/>
<path class="st0" d="M71.254,199.168c-1.582,0-2.914,0-4.693,0c2.24-1.873,4.191-3.295,6.824-3.395
	c0.434-0.016,0.865-0.098,1.298-0.098c2.705-0.01,5.41-0.006,8.184,0.223c-1.866,1.605-3.549,3.52-6.252,3.383
	c-1.11-0.059-1.718,0.275-2.211,1.197c-0.895,1.676-1.854,3.316-2.789,4.969c-1.758,3.105-1.019,2.879-5.255,2.717
	C67.982,205.182,69.563,202.279,71.254,199.168z"/>
<path class="st0" d="M40.984,124.025c5.485,0,10.884,0,16.293,0c-0.637,2.877-0.637,2.877-3.408,2.877
	c-2.659,0-5.332-0.178-7.97,0.053C43.51,127.166,41.959,126.359,40.984,124.025z"/>
<path class="st0" d="M44.842,175.188c-0.796,1.457-1.584,2.916-2.391,4.367c-0.842,1.516-1.703,3.021-2.553,4.531
	c-1.158,2.057-1.561,2.211-4.094,1.424c1.822-3.287,3.503-6.623,5.521-9.744c0.485-0.75,2.081-0.783,3.166-1.145
	C44.608,174.811,44.725,175,44.842,175.188z"/>
<path class="st0" d="M44.039,127.939c3.981,0,7.764,0,11.547,0c-0.253,2.498-0.593,2.828-2.927,2.828c-1.302,0-2.63-0.162-3.9,0.037
	C46.428,131.166,45.159,129.951,44.039,127.939z"/>
<path class="st0" d="M47.59,131.844c2.16,0,4.316,0,6.663,0c-0.695,1.037-0.224,2.682-1.917,2.883
	C49.851,135.016,48.396,134.088,47.59,131.844z"/>
<path class="st0" d="M60.025,202.41c0.036-0.779,0.061-1.303,0.093-2.002c1.741,0,3.399-0.059,5.047,0.051
	c0.331,0.02,0.856,0.672,0.858,1.033c0.002,0.303-0.615,0.854-0.983,0.875C63.439,202.465,61.83,202.41,60.025,202.41z"/>
<path class="st1" d="M117.901,111.375c0.221-0.457,0.425-0.922,0.662-1.371c4.662-8.798,8.528-17.933,11.677-27.377
	c0.368-1.104,0.243-1.822-0.597-2.713c-5.441-5.772-10.804-11.62-16.189-17.444c-0.254-0.275-0.488-0.567-0.568-1.021
	c2.777,2.582,5.557,5.162,8.332,7.746c3.699,3.443,7.388,6.898,11.099,10.328c0.601,0.555,0.95,1.03,0.586,1.934
	c-4.128,10.239-8.972,20.126-14.513,29.672c-0.074,0.128-0.206,0.224-0.313,0.335C118.019,111.433,117.96,111.404,117.901,111.375z"
	/>
<path class="st1" d="M132.289,27.795c-1.409,0.966-2.818,1.933-4.419,3.029c-1.621-2.58-3.188-5.072-4.836-7.692
	c1.717-0.217,2.95,0.404,3.896,1.485c1.423,1.628,2.802,3.23,5.411,2.762C132.323,27.518,132.306,27.656,132.289,27.795z"/>
<path class="st1" d="M84.128,204.305c0.699-1.672,1.684-1.781,3.013-1.264C86.742,204.918,85.376,204.16,84.128,204.305z"/>
<path class="st1" d="M122.749,177.963c-0.472,2.217-0.707,2.32-4.612,2.133C118.569,177.863,119.053,177.633,122.749,177.963z"/>
<path class="st1" d="M67.673,180.068c0.598-2.105,2.133-2.693,4.658-1.877C71.992,180.229,71.733,180.338,67.673,180.068z"/>
<path class="st1" d="M104.886,182.299c1.377-3.984,2.426-4.721,6.067-4.328C109.882,182.293,107.606,183.758,104.886,182.299z"/>
</svg>
