<?xml version="1.0" encoding="utf-8"?>
<!-- Generator: Adobe Illustrator 24.0.1, SVG Export Plug-In . SVG Version: 6.00 Build 0)  -->
<svg version="1.1" xmlns="http://www.w3.org/2000/svg" xmlns:xlink="http://www.w3.org/1999/xlink" x="0px" y="0px"
	 viewBox="0 0 1080 1080" style="enable-background:new 0 0 1080 1080;" xml:space="preserve">
<style type="text/css">
	.st0{display:none;}
	.st1{display:inline;}
	.st2{fill:none;stroke:#000000;stroke-width:13;stroke-miterlimit:10;}
	.st3{fill:none;}
	.st4{fill:none;stroke:#000000;stroke-width:5;stroke-miterlimit:10;}
</style>
<g id="Layer_1" class="st0">
	<g class="st1">
		<circle class="st2" cx="540.19" cy="545.35" r="488.54"/>
		<circle class="st2" cx="541.44" cy="546.33" r="361.45"/>
		<circle class="st2" cx="541.44" cy="548.27" r="260.24"/>
		<circle class="st2" cx="541.44" cy="548.27" r="126.53"/>
		<line class="st3" x1="541.44" y1="56.81" x2="540.19" y2="56.81"/>
		<line class="st3" x1="537.7" y1="45.53" x2="530.22" y2="45.53"/>
		<line class="st2" x1="541.5" y1="1036.88" x2="541.5" y2="59.81"/>
		<line class="st2" x1="51.65" y1="548.27" x2="1028.73" y2="548.27"/>
	</g>
</g>
<g id="Layer_2">
	<circle class="st4" cx="542.68" cy="530.56" r="448.68"/>
	<circle class="st4" cx="541.03" cy="533.59" r="338.47"/>
	<circle class="st4" cx="543.82" cy="533.23" r="239"/>
	<circle class="st4" cx="543.82" cy="533.23" r="116.21"/>
	<line class="st3" x1="543.82" y1="81.88" x2="542.68" y2="81.88"/>
	<line class="st3" x1="543.82" y1="989" x2="536.95" y2="989"/>
	<line class="st3" x1="540.39" y1="71.52" x2="533.52" y2="71.52"/>
	<line class="st4" x1="543.39" y1="979.22" x2="543.5" y2="81.5"/>
	<line class="st4" x1="94" y1="533.23" x2="992.5" y2="533.5"/>
</g>
</svg>
