<?xml version="1.0" encoding="utf-8"?>
<!-- Generator: Adobe Illustrator 24.0.1, SVG Export Plug-In . SVG Version: 6.00 Build 0)  -->
<svg version="1.1" xmlns="http://www.w3.org/2000/svg" xmlns:xlink="http://www.w3.org/1999/xlink" x="0px" y="0px"
	 viewBox="0 0 1080 1080" style="enable-background:new 0 0 1080 1080;" xml:space="preserve">
<style type="text/css">
	.st0{display:none;}
	.st1{display:inline;}
	.st2{fill:none;stroke:#000000;stroke-width:13;stroke-miterlimit:10;}
	.st3{fill:none;}
	.st4{fill:none;stroke:#000000;stroke-width:5;stroke-miterlimit:10;}
</style>
<g id="Layer_1" class="st0">
	<g class="st1">
		<circle class="st2" cx="540.19" cy="545.35" r="488.54"/>
		<circle class="st2" cx="541.44" cy="546.33" r="361.45"/>
		<circle class="st2" cx="541.44" cy="548.27" r="260.24"/>
		<circle class="st2" cx="541.44" cy="548.27" r="126.53"/>
		<line class="st3" x1="541.44" y1="56.81" x2="540.19" y2="56.81"/>
		<line class="st3" x1="537.7" y1="45.53" x2="530.22" y2="45.53"/>
		<line class="st2" x1="541.5" y1="1036.88" x2="541.5" y2="59.81"/>
		<line class="st2" x1="51.65" y1="548.27" x2="1028.73" y2="548.27"/>
	</g>
</g>
<g id="Layer_2">
	<circle class="st4" cx="542.68" cy="530.56" r="448.68"/>
	<circle class="st4" cx="541.03" cy="533.59" r="338.47"/>
	<circle class="st4" cx="540.13" cy="534.14" r="227.84"/>
	<circle class="st4" cx="543.82" cy="533.23" r="116.21"/>
	<line class="st3" x1="543.82" y1="81.88" x2="542.68" y2="81.88"/>
	<line class="st3" x1="543.82" y1="989" x2="536.95" y2="989"/>
	<line class="st3" x1="540.39" y1="71.52" x2="533.52" y2="71.52"/>
	<line class="st4" x1="543.39" y1="979.22" x2="543.5" y2="81.5"/>
	<line class="st4" x1="94" y1="533.23" x2="992.5" y2="533.5"/>
	<g>
		<path d="M143.58,505.08h-0.07l-4.07,2.2l-0.61-2.41l5.11-2.74h2.7v23.4h-3.06V505.08z"/>
		<path d="M155.43,523.65c0-1.33,0.9-2.27,2.16-2.27c1.26,0,2.12,0.94,2.12,2.27c0,1.3-0.83,2.27-2.16,2.27
			C156.29,525.92,155.43,524.95,155.43,523.65z"/>
		<path d="M176.59,504.79h-8.93l-0.9,6.01c0.54-0.07,1.04-0.14,1.91-0.14c1.8,0,3.6,0.4,5.04,1.26c1.84,1.04,3.35,3.06,3.35,6.01
			c0,4.57-3.64,7.99-8.71,7.99c-2.56,0-4.72-0.72-5.83-1.44l0.79-2.41c0.97,0.58,2.88,1.3,5,1.3c2.99,0,5.54-1.94,5.54-5.08
			c-0.04-3.02-2.05-5.18-6.73-5.18c-1.33,0-2.38,0.14-3.24,0.25l1.51-11.23h11.19V504.79z"/>
		<path d="M197.11,508.1c-0.07,1.26-0.14,2.66-0.14,4.79V523c0,4-0.79,6.44-2.48,7.96c-1.69,1.58-4.14,2.09-6.34,2.09
			c-2.09,0-4.39-0.5-5.8-1.44l0.79-2.41c1.15,0.72,2.95,1.37,5.11,1.37c3.24,0,5.62-1.69,5.62-6.08v-1.94h-0.07
			c-0.97,1.62-2.84,2.92-5.54,2.92c-4.32,0-7.42-3.67-7.42-8.5c0-5.9,3.85-9.25,7.85-9.25c3.02,0,4.68,1.58,5.44,3.02h0.07
			l0.14-2.63H197.11z M193.84,514.98c0-0.54-0.04-1.01-0.18-1.44c-0.58-1.84-2.12-3.35-4.43-3.35c-3.02,0-5.18,2.56-5.18,6.59
			c0,3.42,1.73,6.26,5.15,6.26c1.94,0,3.71-1.22,4.39-3.24c0.18-0.54,0.25-1.15,0.25-1.69V514.98z"/>
	</g>
	<g>
		<path d="M887.55,505.1h-0.07l-4.07,2.2l-0.61-2.41l5.11-2.74h2.7v23.4h-3.06V505.1z"/>
		<path d="M899.4,523.67c0-1.33,0.9-2.27,2.16-2.27s2.12,0.94,2.12,2.27c0,1.3-0.83,2.27-2.16,2.27
			C900.26,525.94,899.4,524.97,899.4,523.67z"/>
		<path d="M920.56,504.81h-8.93l-0.9,6.01c0.54-0.07,1.04-0.14,1.91-0.14c1.8,0,3.6,0.4,5.04,1.26c1.83,1.04,3.35,3.06,3.35,6.01
			c0,4.57-3.64,7.99-8.71,7.99c-2.56,0-4.72-0.72-5.83-1.44l0.79-2.41c0.97,0.58,2.88,1.3,5,1.3c2.99,0,5.54-1.94,5.54-5.08
			c-0.04-3.02-2.05-5.18-6.73-5.18c-1.33,0-2.38,0.14-3.24,0.25l1.51-11.23h11.19V504.81z"/>
		<path d="M941.08,508.12c-0.07,1.26-0.14,2.66-0.14,4.79v10.11c0,4-0.79,6.44-2.48,7.96c-1.69,1.58-4.14,2.09-6.33,2.09
			c-2.09,0-4.39-0.5-5.8-1.44l0.79-2.41c1.15,0.72,2.95,1.37,5.11,1.37c3.24,0,5.62-1.69,5.62-6.08v-1.94h-0.07
			c-0.97,1.62-2.84,2.92-5.54,2.92c-4.32,0-7.42-3.67-7.42-8.5c0-5.9,3.85-9.25,7.85-9.25c3.02,0,4.68,1.58,5.44,3.02h0.07
			l0.14-2.63H941.08z M937.81,515c0-0.54-0.04-1.01-0.18-1.44c-0.58-1.84-2.12-3.35-4.43-3.35c-3.02,0-5.18,2.56-5.18,6.59
			c0,3.42,1.73,6.26,5.15,6.26c1.94,0,3.71-1.22,4.39-3.24c0.18-0.54,0.25-1.15,0.25-1.69V515z"/>
	</g>
	<g>
		<path d="M552.55,880.1h-0.07l-4.07,2.2l-0.61-2.41l5.11-2.74h2.7v23.4h-3.06V880.1z"/>
		<path d="M564.4,898.67c0-1.33,0.9-2.27,2.16-2.27s2.12,0.94,2.12,2.27c0,1.3-0.83,2.27-2.16,2.27
			C565.26,900.94,564.4,899.97,564.4,898.67z"/>
		<path d="M585.56,879.81h-8.93l-0.9,6.01c0.54-0.07,1.04-0.14,1.91-0.14c1.8,0,3.6,0.4,5.04,1.26c1.83,1.04,3.35,3.06,3.35,6.01
			c0,4.57-3.64,7.99-8.71,7.99c-2.56,0-4.72-0.72-5.83-1.44l0.79-2.41c0.97,0.58,2.88,1.3,5,1.3c2.99,0,5.54-1.94,5.54-5.08
			c-0.04-3.02-2.05-5.18-6.73-5.18c-1.33,0-2.38,0.14-3.24,0.25l1.51-11.23h11.19V879.81z"/>
		<path d="M606.08,883.12c-0.07,1.26-0.14,2.66-0.14,4.79v10.12c0,3.99-0.79,6.44-2.48,7.96c-1.69,1.58-4.14,2.09-6.33,2.09
			c-2.09,0-4.39-0.5-5.8-1.44l0.79-2.41c1.15,0.72,2.95,1.37,5.11,1.37c3.24,0,5.62-1.69,5.62-6.08v-1.94h-0.07
			c-0.97,1.62-2.84,2.92-5.54,2.92c-4.32,0-7.42-3.67-7.42-8.5c0-5.9,3.85-9.25,7.85-9.25c3.02,0,4.68,1.58,5.44,3.02h0.07
			l0.14-2.63H606.08z M602.81,890c0-0.54-0.04-1.01-0.18-1.44c-0.58-1.84-2.12-3.35-4.43-3.35c-3.02,0-5.18,2.55-5.18,6.59
			c0,3.42,1.73,6.26,5.15,6.26c1.94,0,3.71-1.22,4.39-3.24c0.18-0.54,0.25-1.15,0.25-1.69V890z"/>
	</g>
	<g>
		<path d="M552.55,170.1h-0.07l-4.07,2.2l-0.61-2.41l5.11-2.74h2.7v23.4h-3.06V170.1z"/>
		<path d="M564.4,188.67c0-1.33,0.9-2.27,2.16-2.27s2.12,0.94,2.12,2.27c0,1.3-0.83,2.27-2.16,2.27
			C565.26,190.94,564.4,189.97,564.4,188.67z"/>
		<path d="M585.56,169.81h-8.93l-0.9,6.01c0.54-0.07,1.04-0.14,1.91-0.14c1.8,0,3.6,0.4,5.04,1.26c1.83,1.04,3.35,3.06,3.35,6.01
			c0,4.57-3.64,7.99-8.71,7.99c-2.56,0-4.72-0.72-5.83-1.44l0.79-2.41c0.97,0.58,2.88,1.3,5,1.3c2.99,0,5.54-1.94,5.54-5.08
			c-0.04-3.02-2.05-5.18-6.73-5.18c-1.33,0-2.38,0.14-3.24,0.25l1.51-11.23h11.19V169.81z"/>
		<path d="M606.08,173.12c-0.07,1.26-0.14,2.66-0.14,4.79v10.11c0,4-0.79,6.44-2.48,7.96c-1.69,1.58-4.14,2.09-6.33,2.09
			c-2.09,0-4.39-0.5-5.8-1.44l0.79-2.41c1.15,0.72,2.95,1.37,5.11,1.37c3.24,0,5.62-1.69,5.62-6.08v-1.94h-0.07
			c-0.97,1.62-2.84,2.92-5.54,2.92c-4.32,0-7.42-3.67-7.42-8.5c0-5.9,3.85-9.25,7.85-9.25c3.02,0,4.68,1.58,5.44,3.02h0.07
			l0.14-2.63H606.08z M602.81,180c0-0.54-0.04-1.01-0.18-1.44c-0.58-1.84-2.12-3.35-4.43-3.35c-3.02,0-5.18,2.56-5.18,6.59
			c0,3.42,1.73,6.26,5.15,6.26c1.94,0,3.71-1.22,4.39-3.24c0.18-0.54,0.25-1.15,0.25-1.69V180z"/>
	</g>
</g>
</svg>
